<svg width="75" height="74" viewBox="0 0 75 74" fill="none" xmlns="http://www.w3.org/2000/svg">
<path d="M18.4587 38.3315C23.5011 38.3315 27.5887 34.2617 27.5887 29.2414C27.5887 24.221 23.5011 20.1512 18.4587 20.1512C13.4163 20.1512 9.32864 24.221 9.32864 29.2414C9.32864 34.2617 13.4163 38.3315 18.4587 38.3315Z" fill="#160515"/>
<path d="M41.7704 40.9551C44.9443 40.9551 47.5172 38.3934 47.5172 35.2334C47.5172 32.0734 44.9443 29.5117 41.7704 29.5117C38.5965 29.5117 36.0236 32.0734 36.0236 35.2334C36.0236 38.3934 38.5965 40.9551 41.7704 40.9551Z" fill="black"/>
<path d="M34.9179 70.9677H2.03918C1.74787 67.6586 1.66842 61.9633 4.01217 55.5956C4.66763 53.8224 10.0371 39.2017 18.4388 39.2676C26.0262 39.3269 31.0447 51.3438 32.3027 54.3563C35.1695 61.2184 35.1761 67.4675 34.9245 70.9612L34.9179 70.9677Z" fill="black"/>
<path d="M31.8194 63.0575H51.8538C52.165 60.6845 52.4298 55.9911 50.1192 50.9945C49.2651 49.1422 46.0011 42.0757 41.2871 42.2141C36.8313 42.346 34.0373 48.8324 33.1568 50.8824C30.9587 55.9911 31.4221 60.7306 31.8194 63.0575Z" fill="black"/>
<path d="M55.9786 18.1605C45.5045 8.21343 32.1173 9.89435 30.4555 10.1317C28.7474 9.73614 27.6814 8.03545 28.0456 6.40727C28.3898 4.87796 29.906 3.80349 31.5347 4.00784C33.7858 3.81667 48.4508 2.8213 60.2953 14.0208C71.822 24.9106 71.8816 39.0237 71.8485 41.3308C71.683 43.1172 70.3191 44.4554 68.8559 44.5608C67.0551 44.6927 65.2013 42.9524 65.3668 40.6717C65.3999 38.7337 65.38 27.0991 55.9719 18.1605H55.9786Z" fill="black"/>
<path d="M49.3578 24.4491C42.0551 17.5145 32.7198 18.6879 31.5678 18.8527C30.3761 18.5758 29.6345 17.3959 29.8861 16.2555C30.1245 15.1876 31.1838 14.4427 32.3226 14.5811C33.8917 14.4493 44.1141 13.7572 52.3702 21.5619C60.4012 29.1557 60.4476 38.9907 60.4277 40.5991C60.3085 41.845 59.3618 42.7744 58.3422 42.8469C57.0908 42.9392 55.7932 41.7263 55.9057 40.1377C55.9256 38.7864 55.919 30.6718 49.3578 24.4425V24.4491Z" fill="black"/>
<path d="M2.04276 67.9129C2.04276 62.0266 2.99682 57.7569 5.58467 52.0619C8.6476 45.3213 12.4719 40.8669 16.1734 39.7286C19.4995 38.7058 22.8525 40.0344 25.9812 43.6151C27.813 45.7116 30.1235 49.5308 31.5249 52.7789L32.1227 54.1645L32.46 53.0918C32.928 51.6031 33.3629 50.5647 34.2757 48.7564C36.1041 45.1342 38.0218 43.1298 40.2859 42.4745C42.7276 41.7678 45.4101 43.3749 47.7835 46.9663C50.8473 51.6025 52.2515 56.4731 51.9313 61.3534L51.8201 63.0486H43.1765H34.533L34.6436 63.4006C34.7045 63.5942 34.7924 65.3543 34.8391 67.3118L34.9239 70.871H18.4833H2.04276V67.9129Z" fill="#160515"/>
<path d="M2.0966 67.6704C2.30169 61.339 3.16056 57.5645 5.63517 52.1192C8.58115 45.6367 12.2446 41.2681 15.8682 39.9162C17.0676 39.4688 19.3003 39.3714 20.3489 39.7207C22.195 40.3357 24.038 41.578 25.5343 43.2157C27.3619 45.2161 29.802 49.1063 31.2144 52.2716C31.6132 53.1652 31.9909 53.9533 32.0538 54.0229C32.1167 54.0924 32.4283 53.3994 32.7463 52.4828C34.3529 47.8523 37.0206 44.008 39.3966 42.8995C40.7154 42.2842 42.2953 42.2964 43.5952 42.9319C46.8827 44.539 50.6467 50.9247 51.6148 56.5374C51.8515 57.91 51.9526 62.299 51.7591 62.8012C51.6737 63.0226 50.7645 63.0486 43.1059 63.0486H34.548L34.6341 64.2611C34.6814 64.928 34.7626 66.688 34.8147 68.1723L34.9093 70.871H18.4511H1.99292L2.0966 67.6704Z" fill="#160515"/>
<path d="M40.0844 40.6063C38.3291 40.0383 36.7116 38.325 36.2939 36.5913C35.2895 32.4229 39.2656 28.6101 43.3125 29.8609C45.2803 30.4691 46.66 31.8784 47.2277 33.8602C47.9242 36.2917 46.5585 39.1769 44.1747 40.3101C43.0941 40.8238 41.1839 40.9621 40.0844 40.6063Z" fill="#160515"/>
<path d="M67.4893 44.1858C66.8059 43.8326 66.1709 43.1907 65.806 42.484C65.5425 41.9736 65.4648 41.4034 65.3583 39.1986C65.126 34.3915 64.2678 30.9096 62.3048 26.8095C60.7182 23.4957 58.9224 20.9612 56.3776 18.4444C52.0287 14.1432 46.5405 11.4043 39.9122 10.2274C38.7924 10.0285 37.3503 9.9542 34.1401 9.92981L29.8607 9.8973L29.3067 9.47659C28.5553 8.90597 28.1271 8.02095 28.1271 7.03865C28.1271 6.09522 28.3871 5.53651 29.127 4.88969C29.8606 4.24838 30.3977 4.11083 32.565 4.00928C35.9464 3.85083 40.4909 4.33889 44.0078 5.23817C47.3634 6.0962 51.4123 7.78783 54.2115 9.50129C57.4523 11.4851 61.2504 14.8042 63.4794 17.6004C68.3685 23.7336 71.2415 31.3515 71.7397 39.5032C71.8607 41.483 71.7211 42.1979 71.0274 43.1514C70.1903 44.302 68.6089 44.7643 67.4893 44.1858Z" fill="#160515"/>
<path d="M57.135 42.4097C56.2468 41.8268 56.0593 41.3073 55.925 39.0586C55.7799 36.6289 55.4672 34.9053 54.8168 32.9505C53.2358 28.1988 50.0723 24.2271 45.829 21.6664C42.4136 19.6054 38.2328 18.5569 33.7054 18.6261C31.0054 18.6673 31.233 18.6979 30.6579 18.2162C29.7068 17.4193 29.7307 16.0612 30.7109 15.2043C31.2053 14.7721 31.3648 14.7298 32.892 14.6262C36.8461 14.3578 41.7607 15.3277 45.7209 17.158C50.4362 19.3371 55.0471 23.7669 57.3709 28.3502C58.6911 30.954 59.7174 34.2684 60.1078 37.1886C60.5347 40.3819 60.3854 41.4671 59.4062 42.2874C58.787 42.8062 57.8184 42.8583 57.135 42.4097Z" fill="#160515"/>
<path d="M2.09119 67.6247C2.27264 61.6323 3.02219 58.1294 5.21293 53.0359C7.99092 46.5771 11.7434 41.7487 15.2045 40.1792C19.4916 38.2354 23.8865 40.3023 27.7387 46.074C29.1663 48.2128 30.5603 50.7059 31.3634 52.5563C31.7008 53.3338 32.0191 53.9709 32.0706 53.9722C32.1222 53.9736 32.4318 53.253 32.7588 52.371C34.5421 47.5601 37.0368 44.0004 39.3966 42.8995C40.7085 42.2874 42.2962 42.2968 43.5794 42.9242C46.9074 44.5511 50.6907 50.9721 51.6114 56.556C51.793 57.657 51.8556 58.8389 51.8226 60.5454L51.7759 62.9704L43.1575 63.0108L34.5391 63.0513L34.6284 63.9495C34.6776 64.4436 34.7633 66.203 34.819 67.8594L34.9202 70.871H18.4566H1.99289L2.09119 67.6247Z" fill="white"/>
<path d="M2.04426 70.2844C2.04509 69.9617 2.1179 68.328 2.20608 66.6539C2.452 61.985 2.88304 59.5523 4.06458 56.1649C6.99889 47.7523 11.9013 41.179 16.2137 39.8748C17.1193 39.601 17.5787 39.5549 18.7555 39.6197C21.1087 39.7495 22.7446 40.5978 24.9865 42.8508C27.1315 45.0065 29.5811 48.7585 31.2535 52.4499C31.6334 53.2885 31.997 53.9746 32.0615 53.9746C32.126 53.9746 32.479 53.2178 32.846 52.2928C34.2988 48.6311 35.8979 45.9444 37.582 44.3355C39.074 42.91 39.6852 42.6381 41.405 42.6348C43.1436 42.6315 43.8802 42.9448 45.3475 44.3113C47.8013 46.5967 49.9409 50.4472 51.1663 54.7831C51.5355 56.0897 51.5869 56.5924 51.6556 59.5677L51.7324 62.8922L47.6686 62.8925C45.4336 62.8926 41.5527 62.9388 39.0446 62.9951L34.4843 63.0975L34.5893 64.5202C34.6471 65.3027 34.738 67.0518 34.7912 68.407L34.888 70.871H18.4654H2.04276L2.04426 70.2844Z" fill="white"/>
<path d="M17.3634 38.1584C15.3276 37.9075 13.6428 37.0663 12.0805 35.5208C7.91889 31.4036 8.81121 24.5584 13.9064 21.5142C17.5352 19.3461 22.12 20.0302 25.0502 23.1769C27.6414 25.9596 28.2025 29.68 26.5484 33.1115C24.8738 36.5856 21.1599 38.6262 17.3634 38.1584Z" fill="white"/>
<path d="M2.10752 68.2505C2.36813 61.855 2.96239 58.7398 4.78171 54.2324C7.89526 46.5184 12.2245 41.0812 16.2137 39.8748C17.6205 39.4494 19.739 39.5193 21.0271 40.0337C24.4338 41.394 27.814 45.3866 30.8954 51.6896C31.4383 52.8 31.9441 53.7699 32.0196 53.8451C32.0977 53.9229 32.4154 53.3238 32.7579 52.4528C34.1791 48.8377 35.8995 45.9428 37.582 44.3355C39.0997 42.8855 39.6783 42.633 41.4835 42.633C43.3672 42.633 43.8975 42.8886 45.6658 44.6484C47.1575 46.1329 48.262 47.7502 49.4174 50.1417C51.1796 53.7892 51.6973 56.0674 51.6973 60.1748V62.8922H49.0517C47.5967 62.8922 43.7352 62.939 40.4707 62.9961L34.5352 63.1L34.6284 64.8344C34.6796 65.7883 34.7666 67.5367 34.8217 68.7199L34.9218 70.8711H18.4613H2.00073L2.10752 68.2505Z" fill="white"/>
<path d="M39.7759 40.4444C38.8329 40.0211 37.7655 39.1338 37.1867 38.292C35.6466 36.0521 35.9387 33.341 37.9343 31.3542C39.195 30.0989 40.2653 29.6731 41.9549 29.7547C44.0922 29.8578 45.7774 30.9483 46.7068 32.8295C47.1733 33.774 47.2182 33.992 47.2104 35.2767C47.2 36.9958 46.8808 37.8037 45.7357 39.0091C44.5563 40.2507 43.7796 40.578 41.8764 40.6349C40.7247 40.6693 40.1637 40.6185 39.7759 40.4444Z" fill="white"/>
<path d="M67.6465 44.1448C66.8266 43.766 65.8958 42.7266 65.7045 41.9761C65.621 41.6485 65.4705 40.2252 65.37 38.8131C64.9943 33.5297 64.2009 30.5351 62.0298 26.2051C60.8488 23.8497 59.7892 22.2216 58.2464 20.3913C54.0934 15.4645 48.65 12.2115 41.7978 10.5614C40.8904 10.3429 39.6176 10.1241 38.9694 10.0753C38.3212 10.0264 37.6141 9.9629 37.398 9.93418C37.182 9.90546 35.399 9.87618 33.4359 9.8691L29.8665 9.85623L29.3031 9.36366C27.9294 8.16285 27.8046 6.37282 29.0089 5.14489C29.9226 4.21321 30.2785 4.14492 34.1768 4.1533C40.6279 4.16717 45.6388 5.30713 51.3045 8.04979C54.7295 9.70778 57.0315 11.3107 60.2465 14.2763C66.2074 19.7746 70.2505 27.9353 71.4118 36.8124C71.7138 39.1206 71.7273 41.6062 71.4415 42.2851C70.762 43.8997 68.9927 44.7666 67.6465 44.1448Z" fill="white"/>
<path d="M57.6086 42.5485C56.9666 42.3571 56.4322 41.8056 56.2595 41.1561C56.1779 40.8493 56.0333 39.6868 55.9383 38.5728C55.7397 36.2453 55.4776 34.8591 54.9014 33.0888C52.8646 26.8306 47.9548 21.8173 41.8715 19.7841C39.4376 18.9706 37.9989 18.7512 34.5132 18.6618L31.2355 18.5778L30.7075 18.1162C29.7838 17.3088 29.8271 16.1802 30.8181 15.2349C31.282 14.7923 31.3074 14.7877 33.5692 14.7294C36.3184 14.6587 38.2139 14.8745 40.9336 15.568C45.7596 16.7986 49.1334 18.724 52.7188 22.2937C53.756 23.3264 55.0534 24.8049 55.602 25.5793C58.0325 29.0102 59.7329 33.7841 60.155 38.3617C60.3914 40.9245 60.0519 41.9701 58.8127 42.4958C58.2469 42.7359 58.2383 42.7362 57.6086 42.5485Z" fill="white"/>
<path d="M57.0384 42.1375C56.3724 41.5796 56.3075 41.3641 56.0242 38.7686C55.717 35.9537 55.4017 34.3856 54.8035 32.6977C52.4884 26.1646 47.2688 21.2134 40.7881 19.4028C38.8889 18.8722 37.9929 18.7629 34.5085 18.6367L31.2261 18.5179L30.698 17.9441C30.0511 17.2413 29.9909 16.4718 30.5222 15.6997C31.0912 14.8731 31.3262 14.8167 34.2095 14.816C37.9023 14.8152 40.8725 15.3769 44.3585 16.7354C47.4839 17.9534 49.8559 19.5789 52.8044 22.5233C55.7427 25.4573 57.3046 27.9509 58.6815 31.9063C59.9487 35.5465 60.5144 40.3928 59.8077 41.5549C59.1704 42.6031 57.9105 42.8681 57.0384 42.1375Z" fill="white"/>
<path d="M67.4893 43.9805C66.8405 43.577 66.0483 42.7178 65.8555 42.2086C65.7673 41.9756 65.5839 40.5324 65.448 39.0014C64.9272 33.1375 64.1393 30.2178 61.9165 25.9159C60.298 22.7835 59.2058 21.2608 56.8089 18.7953C52.6615 14.5293 47.3921 11.724 40.8637 10.3064C39.591 10.0301 38.6441 9.96875 34.6482 9.90374L29.9342 9.82705L29.3266 9.25496C27.8167 7.83313 27.9626 5.84522 29.662 4.68706C30.2262 4.30257 30.2291 4.30233 34.2444 4.3091C38.579 4.31641 40.3708 4.50095 43.5137 5.26376C48.2129 6.40432 53.127 8.7041 56.9225 11.539C59.0451 13.1245 62.6811 16.7348 64.145 18.7106C68.2855 24.2989 70.9153 31.3595 71.4926 38.4373C71.7368 41.4317 71.5465 42.4888 70.6068 43.3574C69.6004 44.2876 68.3765 44.5322 67.4893 43.9805Z" fill="white"/>
</svg>
